<?xml version="1.0" standalone="no"?>
<!DOCTYPE svg PUBLIC "-//W3C//DTD SVG 20010904//EN"
 "http://www.w3.org/TR/2001/REC-SVG-20010904/DTD/svg10.dtd">
<svg version="1.0" xmlns="http://www.w3.org/2000/svg"
 width="1024.000000pt" height="1024.000000pt" viewBox="0 0 1024.000000 1024.000000"
 preserveAspectRatio="xMidYMid meet">
<metadata>
Created by potrace 1.11, written by Peter Selinger 2001-2013
</metadata>
<g transform="translate(0.000000,1024.000000) scale(0.100000,-0.100000)"
fill="#000000" stroke="none">
<path d="M4918 10235 c-2 -2 -32 -6 -68 -9 -71 -6 -190 -22 -231 -30 -14 -3
-39 -8 -55 -10 -16 -2 -36 -6 -44 -9 -8 -3 -33 -9 -55 -13 -50 -9 -39 -6 -175
-47 -142 -44 -231 -76 -247 -89 -7 -6 -13 -7 -13 -4 0 4 -12 1 -27 -7 -16 -7
-103 -51 -195 -97 -93 -46 -168 -87 -168 -92 0 -4 -5 -8 -10 -8 -10 0 -189
-116 -200 -129 -3 -4 -22 -17 -42 -31 -21 -14 -38 -28 -38 -32 0 -5 -5 -8 -10
-8 -6 0 -21 -10 -34 -22 -13 -13 -43 -39 -67 -58 -87 -70 -316 -309 -368 -384
-8 -12 -18 -23 -21 -26 -19 -15 -160 -217 -160 -229 0 -4 -8 -16 -17 -27 -21
-23 -46 -66 -111 -195 -27 -53 -53 -102 -58 -110 -5 -8 -9 -16 -10 -19 -2 -13
-17 -48 -30 -72 -8 -16 -12 -28 -8 -28 3 0 2 -6 -4 -13 -15 -17 -78 -202 -112
-327 -39 -144 -68 -290 -75 -375 -1 -16 -5 -55 -9 -85 -4 -30 -9 -100 -11
-155 -2 -55 -5 -102 -5 -105 -6 -18 13 -341 25 -410 2 -14 7 -43 10 -65 5 -33
25 -137 50 -250 13 -61 44 -164 55 -185 7 -14 12 -25 10 -25 -5 0 41 -138 50
-150 4 -5 16 -32 26 -60 17 -48 115 -248 151 -310 141 -241 273 -414 469 -609
131 -132 279 -259 354 -302 16 -10 30 -22 30 -26 0 -4 6 -8 14 -8 8 0 16 -4
18 -8 6 -16 216 -141 343 -203 72 -36 171 -80 220 -98 50 -18 99 -37 110 -41
22 -9 124 -43 140 -46 6 -1 37 -10 70 -19 75 -20 205 -47 290 -60 140 -21 203
-26 440 -36 26 -1 264 11 295 16 19 2 60 7 90 11 80 10 95 12 95 14 0 1 18 4
40 6 67 8 303 70 426 113 168 58 452 187 470 214 3 5 8 7 10 6 5 -3 20 6 139
82 113 72 220 151 220 161 0 4 5 8 11 8 37 0 367 330 476 475 12 17 41 53 63
82 22 29 40 57 40 63 0 5 3 10 8 10 4 0 16 17 27 37 11 20 25 41 31 47 46 47
271 512 288 598 2 7 6 21 10 30 4 9 9 25 11 35 2 10 4 18 5 18 1 0 3 7 6 15
43 165 65 252 69 284 3 21 7 41 10 45 2 4 7 30 10 58 3 27 7 58 9 69 6 33 17
156 21 226 1 36 6 71 9 77 4 6 3 11 -1 11 -7 0 -9 54 -2 86 1 5 0 11 -1 14 -1
3 -3 46 -5 95 -4 140 -21 294 -42 390 -2 11 -6 31 -8 45 -2 14 -9 45 -15 70
-6 25 -13 58 -16 74 -3 15 -24 85 -47 155 -22 69 -41 128 -42 131 -3 8 -15 41
-32 85 -29 73 -142 306 -163 336 -12 16 -19 29 -15 29 3 0 1 6 -5 13 -6 6 -32
46 -58 87 -113 181 -230 327 -398 494 -142 143 -204 195 -391 331 -15 11 -61
41 -103 67 -41 26 -81 52 -87 58 -7 6 -13 8 -13 5 0 -4 -12 3 -28 13 -31 23
-239 127 -274 138 -13 3 -41 15 -63 24 -80 36 -273 100 -345 116 -37 7 -55 12
-55 14 0 2 -13 5 -120 25 -49 9 -98 19 -109 21 -10 2 -44 6 -75 10 -31 3 -65
8 -76 11 -23 5 -492 13 -497 8z m111 -974 c81 -45 113 -153 66 -225 -37 -55
-87 -73 -228 -81 -99 -6 -149 -12 -202 -26 -22 -6 -51 -13 -65 -15 -14 -3 -54
-14 -90 -26 -36 -12 -66 -19 -66 -17 -1 2 -10 -4 -21 -13 -10 -10 -28 -19 -39
-20 -37 -6 -244 -128 -319 -189 -51 -41 -216 -211 -251 -259 -112 -150 -228
-389 -247 -506 -3 -16 -10 -47 -16 -69 -12 -45 -19 -96 -26 -187 -3 -33 -7
-64 -10 -69 -4 -5 -2 -9 3 -9 14 0 -7 -91 -29 -121 -29 -41 -93 -68 -147 -64
-26 2 -48 9 -50 14 -2 6 -9 11 -16 11 -18 0 -51 41 -64 78 -10 30 -9 227 1
277 3 11 8 40 12 65 27 172 136 483 194 553 8 9 10 17 5 17 -5 0 -4 4 1 8 10
7 75 110 75 118 0 3 6 11 13 19 28 30 47 56 47 65 0 6 4 10 8 10 4 0 24 22 45
48 35 46 144 158 197 202 14 11 34 28 45 38 32 30 179 130 237 163 51 28 83
44 178 86 140 63 335 115 485 130 33 3 61 6 63 8 11 9 192 -3 211 -14z"/>
<path d="M4485 4211 c-3 -6 -3 -15 0 -21 3 -5 1 -10 -6 -10 -10 0 -10 -3 -2
-11 7 -7 8 -21 3 -40 -5 -16 -5 -29 0 -29 5 0 5 -13 0 -30 -5 -16 -5 -30 0
-30 4 0 4 -16 0 -35 -4 -19 -4 -37 1 -40 4 -3 4 -17 -1 -30 -5 -14 -5 -27 0
-30 5 -3 5 -18 1 -33 -7 -28 -6 -75 3 -99 3 -7 1 -13 -4 -13 -5 0 -5 -13 0
-30 5 -16 6 -30 2 -30 -4 0 -7 -16 -7 -35 0 -19 3 -35 7 -35 4 0 3 -13 -2 -30
-5 -16 -6 -30 -2 -30 8 0 7 -68 -1 -76 -3 -3 -2 -17 3 -30 6 -14 6 -26 0 -29
-6 -3 -6 -15 0 -30 6 -15 6 -27 0 -30 -6 -3 -6 -15 0 -30 6 -15 6 -27 0 -30
-5 -3 -6 -15 0 -29 4 -12 4 -29 0 -36 -5 -8 -5 -21 0 -30 5 -9 5 -22 0 -30 -5
-8 -5 -21 0 -30 5 -9 5 -22 0 -30 -5 -8 -5 -21 0 -30 5 -9 5 -22 0 -30 -5 -8
-5 -21 0 -30 5 -9 5 -22 0 -30 -5 -8 -5 -21 0 -30 5 -9 5 -22 0 -30 -5 -8 -5
-21 0 -30 5 -9 5 -22 0 -30 -5 -8 -5 -21 0 -30 5 -9 5 -22 0 -30 -5 -8 -5 -21
0 -30 5 -9 5 -22 0 -30 -5 -8 -5 -21 0 -30 5 -9 5 -22 0 -30 -5 -8 -5 -21 0
-30 5 -9 5 -22 0 -30 -5 -8 -6 -19 -3 -24 8 -13 7 -102 -2 -116 -3 -5 -2 -10
4 -10 6 0 6 -11 1 -30 -5 -16 -5 -30 0 -30 4 0 4 -16 0 -35 -4 -19 -4 -37 1
-40 4 -3 4 -17 -1 -30 -5 -14 -5 -27 0 -30 5 -3 5 -18 0 -35 -5 -17 -5 -30 0
-30 5 0 5 -13 0 -30 -5 -17 -5 -30 0 -30 5 0 5 -13 0 -30 -5 -16 -5 -30 0 -30
4 0 4 -16 0 -35 -4 -19 -4 -37 1 -40 4 -3 4 -17 -1 -30 -6 -15 -6 -27 1 -30 5
-4 7 -11 3 -16 -8 -13 -9 -103 -1 -115 3 -5 2 -16 -3 -24 -4 -7 -4 -24 0 -36
6 -14 5 -26 0 -29 -5 -3 -5 -18 0 -35 5 -17 5 -30 0 -30 -5 0 -5 -13 0 -30 5
-17 5 -30 0 -30 -5 0 -5 -13 0 -30 5 -17 5 -30 0 -30 -5 0 -5 -13 0 -30 5 -17
5 -30 0 -30 -5 0 -5 -13 0 -30 5 -17 5 -30 0 -30 -5 0 -5 -13 0 -30 5 -17 5
-30 0 -30 -5 0 -5 -13 0 -30 5 -17 5 -30 0 -30 -5 0 -5 -13 0 -30 5 -17 5 -30
0 -30 -5 0 -5 -13 0 -30 5 -17 5 -30 0 -30 -5 0 -5 -13 0 -30 5 -17 5 -30 0
-30 -5 0 -5 -13 0 -30 5 -17 5 -30 0 -30 -5 0 -5 -13 0 -30 5 -17 5 -30 0 -30
-5 0 -5 -13 0 -30 5 -17 5 -30 0 -30 -5 0 -5 -13 0 -30 5 -17 5 -30 0 -30 -5
0 -5 -13 0 -30 5 -19 5 -30 -1 -30 -6 0 -8 -4 -5 -8 3 -5 7 -29 10 -54 2 -31
16 -63 40 -99 20 -30 42 -63 49 -73 7 -10 21 -31 33 -45 12 -14 23 -31 25 -36
8 -21 183 -280 191 -283 4 -2 8 -7 8 -12 0 -14 95 -153 125 -182 40 -40 83
-59 144 -64 100 -9 189 41 243 137 12 22 25 39 30 39 4 0 8 6 8 13 0 7 8 22
18 33 11 11 21 24 23 30 8 20 164 249 171 252 4 2 8 8 8 12 0 5 39 66 86 137
47 70 81 129 76 131 -7 2 -7 14 -2 33 5 16 5 29 0 29 -5 0 -5 13 0 29 4 15 4
34 0 42 -5 7 -5 20 0 29 5 9 5 22 0 30 -5 8 -5 21 0 30 5 9 5 22 0 30 -5 8 -5
21 0 30 5 9 5 22 0 30 -5 8 -5 21 0 30 5 9 5 22 0 30 -5 8 -5 21 0 31 5 9 6
19 3 23 -8 8 -7 102 2 116 3 5 2 10 -4 10 -6 0 -6 11 -1 30 5 17 5 30 0 30 -4
0 -4 16 0 35 4 19 4 37 -1 40 -4 3 -4 17 1 30 5 14 5 27 0 30 -5 3 -5 18 0 35
5 17 5 30 0 30 -5 0 -5 13 0 30 5 17 5 30 0 30 -5 0 -5 13 0 30 5 17 5 30 0
30 -4 0 -4 16 0 35 4 19 4 37 -1 40 -4 3 -4 17 1 30 6 15 6 27 -1 30 -5 4 -7
11 -3 16 8 13 9 103 1 115 -3 5 -2 16 3 24 4 7 4 24 0 36 -6 14 -5 26 0 29 5
3 5 18 0 35 -5 17 -5 30 0 30 5 0 5 13 0 30 -5 17 -5 30 0 30 5 0 5 13 0 30
-5 17 -5 30 0 30 5 0 5 13 0 30 -5 17 -5 30 0 30 5 0 5 13 0 30 -5 17 -5 30 0
30 5 0 5 13 0 30 -5 17 -5 30 0 30 5 0 5 13 0 30 -5 17 -5 30 0 30 5 0 5 13 0
30 -5 17 -5 30 0 30 5 0 5 13 0 30 -5 17 -5 30 0 30 5 0 5 13 0 30 -5 17 -5
30 0 30 5 0 5 13 0 30 -5 17 -5 30 0 30 5 0 5 13 0 30 -5 17 -5 30 0 30 5 0 5
13 0 30 -5 17 -5 30 0 30 5 0 5 13 0 30 -5 17 -5 30 0 30 5 0 5 13 0 30 -5 17
-5 30 0 30 5 0 5 12 1 28 -5 15 -5 37 0 49 5 13 4 25 -1 28 -6 3 -6 15 0 30 5
13 6 26 2 29 -8 5 -6 80 2 103 3 7 1 13 -4 13 -5 0 -5 13 0 30 5 17 5 30 0 30
-4 0 -4 16 0 35 4 19 4 37 -1 40 -4 3 -4 17 1 30 5 14 5 27 0 30 -5 3 -5 18 0
35 5 17 5 30 0 30 -5 0 -5 13 0 30 5 17 5 30 0 30 -5 0 -5 13 0 30 5 17 5 30
0 30 -4 0 -4 16 0 35 4 19 4 37 -1 40 -4 3 -4 17 1 30 6 15 6 27 0 30 -5 3 -7
12 -4 19 9 24 10 70 3 99 -4 15 -4 27 1 27 5 0 5 13 0 30 -5 17 -6 30 -2 30 4
0 7 16 7 35 0 19 -3 35 -7 35 -4 0 -3 14 2 30 5 17 5 30 0 30 -4 0 -5 15 -1
33 9 42 3 77 -13 77 -7 0 -38 -5 -67 -10 -30 -6 -76 -13 -104 -16 -27 -3 -56
-7 -63 -10 -74 -24 -670 -24 -783 0 -13 3 -45 7 -72 10 -26 3 -51 7 -55 10
-18 11 -111 16 -117 7z"/>
</g>
</svg>
